<svg width="143" height="44" viewBox="0 0 143 44" fill="none" xmlns="http://www.w3.org/2000/svg">
<g clip-path="url(#clip0_47_271)">
<path d="M24.2764 13.4646C24.2764 13.4646 24.2875 13.4757 24.2764 13.4646V13.4646Z" fill="#318C27"/>
<path d="M23.1887 26.0982L22.7665 26.8452C22.678 27.0087 22.5465 27.145 22.3863 27.2394C22.2261 27.3338 22.0431 27.3828 21.8572 27.381H21.5162C21.2841 27.2947 21.0884 27.1318 20.9615 26.9192C20.8345 26.7066 20.7839 26.4571 20.8179 26.2119C21.5974 20.301 18.6419 15.1534 13.6242 13.7082C13.3733 13.6394 13.1566 13.4804 13.0157 13.2616C12.8748 13.0428 12.8197 12.7797 12.861 12.5228C12.8776 12.2586 12.9943 12.0106 13.1875 11.8295C13.3806 11.6485 13.6356 11.548 13.9003 11.5485H14.8908C16.5763 11.5466 18.2312 11.9977 19.6824 12.8548C21.1337 13.7118 22.3279 14.9432 23.14 16.42C23.9906 17.8892 24.4425 19.5551 24.4511 21.2526C24.4596 22.9502 24.0245 24.6206 23.1887 26.0982Z" fill="#318C27"/>
<path d="M16.5307 22.7206C16.5414 23.2892 16.4398 23.8543 16.2316 24.3835C16.0234 24.9128 15.7127 25.3957 15.3174 25.8046C14.9221 26.2134 14.45 26.5402 13.9281 26.7662C13.4062 26.9921 12.8448 27.1128 12.2762 27.1212C11.1592 27.0718 10.1033 26.5976 9.32445 25.7955C8.54557 24.9934 8.10253 23.9241 8.08593 22.8062C8.06934 21.6882 8.48045 20.6062 9.23519 19.7814C9.98993 18.9565 11.0313 18.4512 12.1463 18.3687C12.7205 18.3644 13.2899 18.4738 13.8216 18.6906C14.3534 18.9073 14.837 19.2272 15.2446 19.6318C15.6521 20.0363 15.9756 20.5175 16.1963 21.0476C16.417 21.5778 16.5307 22.1463 16.5307 22.7206Z" fill="#318C27"/>
<path d="M2.92332 27.2999C2.81017 27.3153 2.69546 27.3153 2.58231 27.2999C2.40639 27.3151 2.22947 27.2859 2.06776 27.2149C1.90606 27.144 1.76473 27.0337 1.65672 26.894L1.33195 26.3256C0.486235 24.8413 0.0415039 23.1624 0.0415039 21.4541C0.0415039 19.7457 0.486235 18.0668 1.33195 16.5825C2.14674 15.1115 3.33928 13.8845 4.78652 13.0281C6.23375 12.1718 7.88327 11.7171 9.56488 11.7109H10.4418C10.5825 11.7131 10.7215 11.7429 10.8507 11.7987C10.9799 11.8545 11.0969 11.9353 11.1949 12.0363C11.2929 12.1373 11.37 12.2567 11.4219 12.3875C11.4738 12.5184 11.4994 12.6582 11.4973 12.7989C11.4939 13.0323 11.4166 13.2586 11.2765 13.4453C11.1365 13.632 10.9409 13.7696 10.7178 13.8382C5.84626 15.3321 2.90708 20.4473 3.68653 26.2769C3.68329 26.5061 3.60776 26.7284 3.4707 26.9121C3.33365 27.0958 3.14208 27.2315 2.92332 27.2999Z" fill="#318C27"/>
<path d="M21.2404 29.3136C21.2438 29.5127 21.1933 29.7091 21.0942 29.8819L20.5584 30.8238L20.3798 31.1323L20.0225 31.7006L19.9251 31.8305V31.9442C19.7789 32.1391 19.649 32.3015 19.5029 32.4638L19.1294 32.8698L18.8046 33.1783L18.4636 33.4706L18.0901 33.7792L17.9602 33.8766L17.603 34.1202L17.2295 34.3638L16.856 34.5749L16.6774 34.656H16.5312L16.1415 34.8347L15.9142 34.9321L15.492 35.0945L15.1022 35.2082L13.7707 35.6304H13.5109H13.2186H12.8288H11.3349H10.9776H10.8802L10.523 35.5816H10.1332H9.95462H9.80847H9.66232H9.46746L9.07774 35.4517L8.75296 35.3381L8.54186 35.0133L8.26581 34.8834L7.89232 34.7048L7.27526 34.38L6.90177 34.1364C6.74997 34.036 6.60362 33.9276 6.46333 33.8116C6.19658 33.6224 5.94667 33.4105 5.71636 33.1783C5.60269 33.0809 5.50526 32.9672 5.37535 32.8373C5.21787 32.6798 5.07137 32.5116 4.93691 32.3339L4.74205 32.1066C4.6972 32.0296 4.64262 31.9586 4.57966 31.8955C4.37881 31.5861 4.19451 31.2663 4.02755 30.9374L3.47544 29.9631C3.3781 29.8012 3.3253 29.6164 3.32239 29.4274C3.31949 29.2385 3.36658 29.0522 3.45891 28.8873C3.55123 28.7224 3.6855 28.5849 3.8481 28.4887C4.0107 28.3924 4.19586 28.3409 4.3848 28.3393C4.63477 28.3473 4.87485 28.4388 5.06682 28.5991C7.06334 30.3027 9.60346 31.2358 12.228 31.2297C14.8968 31.2382 17.4772 30.2741 19.4866 28.5179C19.6801 28.3493 19.9283 28.2569 20.1849 28.2581C20.4648 28.2581 20.7333 28.3693 20.9312 28.5672C21.1292 28.7652 21.2404 29.0336 21.2404 29.3136Z" fill="#318C27"/>
<path d="M120.522 27.6571C120.633 27.6236 120.73 27.5552 120.798 27.4622C120.873 27.3771 120.914 27.2671 120.912 27.1537C120.915 27.0784 120.902 27.0033 120.874 26.9334C120.846 26.8634 120.804 26.8002 120.75 26.7477C120.635 26.6542 120.492 26.6026 120.344 26.6016H119.581V28.3228H119.954V27.6895H120.133L120.571 28.3228H120.944L120.474 27.6895L120.522 27.6571ZM120.311 27.3648H119.954V26.8939H120.311C120.345 26.8932 120.379 26.9001 120.41 26.9142C120.441 26.9282 120.468 26.949 120.49 26.975C120.501 26.9977 120.507 27.0227 120.507 27.0481C120.507 27.0735 120.501 27.0985 120.49 27.1212C120.489 27.1503 120.482 27.1789 120.467 27.2044C120.453 27.2298 120.433 27.2515 120.409 27.2673C120.388 27.3098 120.354 27.3441 120.311 27.3648Z" fill="#318C27"/>
<path d="M121.854 26.7802C121.77 26.563 121.637 26.3684 121.464 26.2119C121.313 26.0591 121.138 25.9329 120.945 25.8384C120.724 25.747 120.486 25.7028 120.247 25.7085C120.002 25.7015 119.759 25.7457 119.532 25.8384C119.322 25.928 119.129 26.0545 118.964 26.2119C118.801 26.3769 118.669 26.5693 118.574 26.7802C118.475 26.994 118.424 27.2267 118.424 27.4622C118.424 27.6978 118.475 27.9305 118.574 28.1443C118.664 28.3536 118.797 28.5417 118.964 28.6964C119.129 28.8588 119.321 28.9907 119.532 29.0861C119.987 29.2597 120.49 29.2597 120.945 29.0861C121.156 28.9907 121.348 28.8588 121.513 28.6964C121.689 28.5494 121.823 28.3591 121.903 28.1443C122.002 27.9305 122.053 27.6978 122.053 27.4622C122.053 27.2267 122.002 26.994 121.903 26.7802H121.854ZM121.513 27.9981C121.441 28.1635 121.336 28.3125 121.205 28.4366C121.073 28.5666 120.919 28.6712 120.75 28.7451C120.574 28.8149 120.387 28.8533 120.198 28.8588C120.008 28.8555 119.821 28.8169 119.646 28.7451C119.474 28.6673 119.315 28.5632 119.175 28.4366C119.048 28.3085 118.944 28.1604 118.866 27.9981C118.794 27.8285 118.756 27.6465 118.753 27.4622C118.758 27.273 118.796 27.0861 118.866 26.9101C118.944 26.7479 119.048 26.5997 119.175 26.4717C119.311 26.3445 119.471 26.2452 119.646 26.1794C119.819 26.1 120.008 26.0611 120.198 26.0657C120.388 26.0628 120.576 26.1016 120.75 26.1794C120.921 26.2415 121.077 26.3414 121.205 26.4717C121.336 26.5957 121.441 26.7448 121.513 26.9101C121.591 27.0836 121.63 27.2721 121.627 27.4622C121.632 27.6474 121.593 27.831 121.513 27.9981Z" fill="#318C27"/>
<path d="M36.1631 26.3581C35.6789 26.6657 35.1125 26.8187 34.5393 26.7966C34.1472 26.799 33.7592 26.7159 33.4026 26.553C33.0476 26.4116 32.7307 26.1891 32.477 25.9035C32.1929 25.6166 31.9717 25.2737 31.8274 24.8967C31.6842 24.4622 31.6183 24.0061 31.6326 23.5489C31.6286 23.095 31.7055 22.6441 31.8599 22.2173C32.0043 21.8355 32.2253 21.4873 32.5094 21.1943C32.7679 20.914 33.0836 20.6925 33.435 20.5447C33.8657 20.3683 34.331 20.2927 34.7954 20.3236C35.2598 20.3546 35.7109 20.4913 36.1144 20.7234C36.5509 21.0203 36.8988 21.43 37.1212 21.9088L39.898 20.7558C39.4829 19.8028 38.8004 18.9905 37.9331 18.4175C36.9646 17.7992 35.8342 17.4827 34.6854 17.5081C33.8573 17.5041 33.036 17.6584 32.2659 17.9628C31.557 18.2516 30.9116 18.6764 30.366 19.2132C29.8306 19.7662 29.4062 20.4166 29.1156 21.1293C28.8167 21.9006 28.6679 22.7218 28.6772 23.5489C28.6679 24.3759 28.8167 25.1972 29.1156 25.9684C29.4157 26.6761 29.8391 27.3249 30.366 27.8846C30.9071 28.4269 31.5537 28.8524 32.2659 29.1349C33.0336 29.4475 33.8565 29.6021 34.6854 29.5896C35.8347 29.619 36.9662 29.3022 37.9331 28.6803C38.8136 28.0834 39.5286 27.2734 40.0116 26.3257L37.2348 25.124C37.0015 25.6285 36.6299 26.0564 36.1631 26.3581Z" fill="#318C27"/>
<path d="M46.2468 17.5081C45.3135 17.4789 44.3864 17.6694 43.5402 18.0643C42.694 18.4592 41.9524 19.0474 41.3753 19.7815L43.5675 21.2917C43.8746 20.8712 44.2784 20.5307 44.7447 20.299C45.211 20.0673 45.7262 19.951 46.2468 19.9601C46.8958 19.9345 47.5315 20.1483 48.0331 20.561C48.259 20.7383 48.4411 20.9653 48.565 21.2244C48.6889 21.4835 48.7514 21.7677 48.7476 22.0549V22.3959C48.3529 22.2373 47.9454 22.1124 47.5297 22.0224C46.9324 21.8925 46.3221 21.8326 45.711 21.8438C45.0887 21.8395 44.4695 21.9326 43.876 22.1199C43.3367 22.2713 42.834 22.531 42.3983 22.8831C41.9958 23.2202 41.6645 23.6342 41.424 24.101C41.1868 24.6088 41.07 25.1645 41.083 25.7248C41.0737 26.2831 41.1844 26.8369 41.4078 27.3487C41.6186 27.8117 41.9227 28.2263 42.3009 28.5666C42.7035 28.9125 43.1657 29.1821 43.6649 29.3623C44.1846 29.5552 44.7344 29.6541 45.2888 29.6545C45.9624 29.6834 46.631 29.5261 47.2212 29.1999C47.7095 28.9022 48.1434 28.5233 48.504 28.0794H48.6826V29.2811H51.6705V22.4122C51.7203 21.7432 51.6241 21.0715 51.3886 20.4434C51.1531 19.8153 50.7839 19.246 50.3065 18.7747C49.1618 17.855 47.7115 17.4025 46.2468 17.5081ZM48.4715 25.6274C48.348 25.9441 48.16 26.2316 47.9194 26.4718C47.6624 26.7108 47.3656 26.9031 47.0425 27.0401C46.6942 27.1915 46.3182 27.2689 45.9383 27.2675C45.4709 27.2899 45.0089 27.1587 44.623 26.894C44.4425 26.7731 44.2957 26.6084 44.1963 26.4152C44.0969 26.2221 44.0481 26.0069 44.0546 25.7898C44.0521 25.5624 44.1037 25.3378 44.2054 25.1344C44.3071 24.9311 44.4558 24.7549 44.6392 24.6206C45.1118 24.2847 45.6841 24.1187 46.2631 24.1497C46.679 24.1455 47.0938 24.1946 47.4972 24.2958C47.8792 24.3897 48.2496 24.5259 48.6014 24.7018C48.6288 25.002 48.6012 25.3046 48.5202 25.5949L48.4715 25.6274Z" fill="#318C27"/>
<path d="M60.375 17.5081C60.044 17.5145 59.7158 17.5692 59.4006 17.6705C59.0755 17.7716 58.7645 17.9134 58.4751 18.0927C58.1887 18.2559 57.9263 18.4581 57.6956 18.6935C57.4695 18.9147 57.2827 19.1728 57.1435 19.4568H56.9487V17.8329H54.1069V29.1999H57.1435V23.6463C57.1398 23.211 57.2056 22.778 57.3384 22.3635C57.4576 21.9863 57.6447 21.6341 57.8905 21.3242C58.1299 21.0268 58.4346 20.7886 58.781 20.6281C59.1274 20.4676 59.5061 20.389 59.8878 20.3986C60.1631 20.3697 60.4407 20.3697 60.716 20.3986C60.9306 20.4474 61.138 20.5238 61.333 20.6259L62.1449 17.9141C61.9176 17.7684 61.6719 17.6538 61.4142 17.5731C61.0723 17.5047 60.7227 17.4828 60.375 17.5081Z" fill="#318C27"/>
<path d="M72.5049 19.2132C71.9635 18.6712 71.3169 18.2457 70.605 17.9628C69.0395 17.3474 67.299 17.3474 65.7335 17.9628C65.0246 18.2515 64.3791 18.6763 63.8335 19.2132C63.2929 19.7619 62.8678 20.4135 62.5832 21.1293C62.2788 21.8995 62.1244 22.7207 62.1285 23.5488C62.1255 24.3821 62.2798 25.2085 62.5832 25.9846C62.8681 26.6955 63.2933 27.3417 63.8335 27.8845C64.3747 28.4268 65.0213 28.8524 65.7335 29.1349C67.299 29.7503 69.0395 29.7503 70.605 29.1349C71.3142 28.8559 71.9562 28.4298 72.4887 27.8845C73.0343 27.3461 73.4604 26.6987 73.739 25.9846C74.0499 25.2107 74.2045 24.3828 74.1937 23.5488C74.2062 22.72 74.0516 21.8971 73.739 21.1293C73.4654 20.4117 73.0451 19.7591 72.5049 19.2132ZM70.8811 24.9129C70.7311 25.2956 70.5045 25.6438 70.2153 25.9359C69.9412 26.2086 69.6155 26.4239 69.2572 26.5692C68.9017 26.716 68.5213 26.7932 68.1368 26.7965C67.7466 26.7965 67.3602 26.7193 67.0001 26.5692C66.6465 26.424 66.3261 26.2085 66.0582 25.9359C65.7636 25.6482 65.5362 25.2988 65.3924 24.9129C65.2218 24.4788 65.139 24.0152 65.1489 23.5488C65.1419 23.0828 65.2246 22.6197 65.3924 22.1848C65.5403 21.801 65.7672 21.4524 66.0582 21.1618C66.3261 20.8891 66.6465 20.6737 67.0001 20.5285C67.3614 20.384 67.7477 20.3122 68.1368 20.3174C68.5203 20.3152 68.9007 20.3868 69.2572 20.5285C69.6155 20.6738 69.9412 20.8891 70.2153 21.1618C70.4999 21.4576 70.7258 21.8048 70.8811 22.1848C71.0489 22.6197 71.1316 23.0828 71.1246 23.5488C71.1553 24.0108 71.0946 24.4744 70.946 24.9129H70.8811Z" fill="#318C27"/>
<path d="M83.6932 23.4351C83.6993 23.8788 83.6446 24.3214 83.5308 24.7504C83.4277 25.1326 83.2512 25.4911 83.0112 25.8059C82.8015 26.1055 82.5231 26.3505 82.1993 26.5204C81.8673 26.7067 81.492 26.8019 81.1113 26.7964C80.813 26.8234 80.5124 26.7834 80.2315 26.6795C79.9506 26.5755 79.6964 26.4102 79.4875 26.1956C79.0876 25.6778 78.8963 25.0288 78.9516 24.3769V17.8815H75.9475V24.7504C75.8835 26.0114 76.2563 27.2559 77.003 28.2741C77.4016 28.7348 77.9038 29.0942 78.4684 29.3228C79.033 29.5515 79.6439 29.6429 80.2507 29.5895C80.9704 29.606 81.6818 29.4324 82.3129 29.0861C82.8992 28.7698 83.392 28.305 83.7419 27.7383H83.9368V29.216H86.7785V17.849H83.6932V23.4351Z" fill="#318C27"/>
<path d="M95.1094 22.3798L93.3394 22.0225C92.9548 21.9296 92.5837 21.7877 92.2351 21.6003C92.1165 21.5457 92.0156 21.4589 91.9439 21.3499C91.8721 21.2408 91.8324 21.1138 91.8292 20.9833C91.837 20.835 91.887 20.692 91.9733 20.5712C92.0596 20.4504 92.1786 20.3567 92.3163 20.3012C92.6652 20.1131 93.0567 20.018 93.453 20.0252C93.8874 20.0349 94.3144 20.1402 94.7034 20.3337C95.1264 20.5317 95.4617 20.8785 95.6453 21.308L98.2597 20.2363C97.9229 19.3382 97.2706 18.5936 96.4247 18.1415C95.5228 17.7108 94.5336 17.4941 93.5342 17.5082C92.9195 17.5029 92.3072 17.5849 91.7155 17.7518C91.1891 17.8914 90.6934 18.1282 90.254 18.4501C89.8461 18.7402 89.5078 19.1173 89.2635 19.5543C89.0161 20.0067 88.8929 20.5165 88.9062 21.032C88.8968 21.4823 88.9972 21.9282 89.1985 22.3311C89.3979 22.6858 89.656 23.0043 89.9617 23.2729C90.2754 23.5379 90.6254 23.7566 91.001 23.9224C91.3568 24.0806 91.7265 24.2056 92.1052 24.2959L93.7291 24.6369C94.2211 24.7283 94.6936 24.9041 95.1256 25.1566C95.25 25.2375 95.3523 25.3482 95.4232 25.4787C95.4941 25.6091 95.5313 25.7551 95.5316 25.9035C95.5235 26.0579 95.4739 26.2071 95.3882 26.3357C95.3025 26.4643 95.1838 26.5674 95.0444 26.6343C94.6401 26.8479 94.1858 26.9489 93.7291 26.9266C93.2064 26.9294 92.6937 26.783 92.2514 26.5044C91.7858 26.2013 91.4145 25.7737 91.1796 25.2702L88.4678 26.3582C88.6332 26.7825 88.8573 27.1816 89.1336 27.5436C89.4326 27.9454 89.7945 28.2963 90.2053 28.5829C90.6661 28.9062 91.1761 29.1529 91.7155 29.3136C92.3584 29.5042 93.0262 29.5972 93.6966 29.5897C94.3681 29.5953 95.0364 29.4967 95.6777 29.2974C96.2288 29.1075 96.7446 28.8277 97.2042 28.4692C97.6075 28.1458 97.9393 27.7421 98.1785 27.2838C98.4899 26.7033 98.6105 26.0393 98.523 25.3863C98.4355 24.7334 98.1445 24.1245 97.6913 23.6464C96.97 22.9852 96.0737 22.5455 95.1094 22.3798Z" fill="#318C27"/>
<path d="M109.951 19.213C109.46 18.6719 108.856 18.2451 108.181 17.9627C107.407 17.6534 106.579 17.4989 105.746 17.508C104.929 17.4982 104.121 17.6644 103.375 17.9951C102.657 18.3061 102.007 18.7527 101.459 19.3104C100.931 19.8634 100.517 20.5144 100.241 21.2266C99.6431 22.7507 99.6431 24.4442 100.241 25.9683C100.527 26.6831 100.952 27.3343 101.491 27.8844C102.038 28.4268 102.69 28.8522 103.407 29.1348C104.164 29.4456 104.976 29.6002 105.794 29.5894C106.938 29.6256 108.067 29.3264 109.042 28.7288C109.935 28.171 110.677 27.4012 111.202 26.4879L108.701 25.27C108.443 25.7493 108.076 26.161 107.629 26.4716C107.117 26.8003 106.516 26.9646 105.908 26.9426C105.556 26.943 105.206 26.8938 104.869 26.7964C104.532 26.6834 104.214 26.5191 103.927 26.3093C103.639 26.0739 103.397 25.7877 103.212 25.4649C103.004 25.1013 102.876 24.6969 102.839 24.2794H111.364C111.355 24.1931 111.355 24.106 111.364 24.0196C111.357 23.9386 111.357 23.8571 111.364 23.776V23.4513C111.376 22.6508 111.25 21.8542 110.991 21.0967C110.776 20.4045 110.423 19.7634 109.951 19.213ZM103.082 22.0223C103.233 21.378 103.6 20.8048 104.122 20.3984C104.589 20.0436 105.159 19.8498 105.746 19.8463C106.151 19.8322 106.555 19.9042 106.931 20.0574C107.244 20.1741 107.53 20.3506 107.775 20.5771C107.983 20.7781 108.154 21.0145 108.279 21.2753C108.382 21.4843 108.448 21.7096 108.474 21.9411L103.082 22.0223Z" fill="#318C27"/>
<path d="M116.381 12.6526H113.345V29.2159H116.381V12.6526Z" fill="#318C27"/>
</g>
<defs>
<clipPath id="clip0_47_271">
<rect width="122" height="24.2279" fill="white" transform="translate(0 11.5323)"/>
</clipPath>
</defs>
</svg>
