<svg width="143" height="43" viewBox="0 0 143 43" fill="none" xmlns="http://www.w3.org/2000/svg">
<g clip-path="url(#clip0_47_71)">
<path d="M24.2764 13.4648C24.2764 13.4648 24.2875 13.476 24.2764 13.4648V13.4648Z" fill="#F8FFF8"/>
<path d="M23.1887 26.0983L22.7665 26.8453C22.678 27.0088 22.5465 27.1451 22.3863 27.2396C22.2261 27.334 22.0431 27.3829 21.8572 27.3812H21.5162C21.2841 27.2948 21.0884 27.1319 20.9615 26.9193C20.8345 26.7068 20.7839 26.4572 20.8179 26.212C21.5974 20.3012 18.6419 15.1535 13.6242 13.7083C13.3733 13.6395 13.1566 13.4805 13.0157 13.2617C12.8748 13.0429 12.8197 12.7798 12.861 12.5229C12.8776 12.2587 12.9943 12.0107 13.1875 11.8297C13.3806 11.6486 13.6356 11.5481 13.9003 11.5486H14.8908C16.5763 11.5467 18.2312 11.9979 19.6824 12.8549C21.1337 13.7119 22.3279 14.9433 23.14 16.4201C23.9906 17.8893 24.4425 19.5552 24.4511 21.2528C24.4596 22.9503 24.0245 24.6207 23.1887 26.0983Z" fill="#F8FFF8"/>
<path d="M16.5307 22.7207C16.5414 23.2893 16.4398 23.8544 16.2316 24.3837C16.0234 24.9129 15.7127 25.3958 15.3174 25.8047C14.9221 26.2136 14.45 26.5403 13.9281 26.7663C13.4062 26.9922 12.8448 27.1129 12.2762 27.1213C11.1592 27.072 10.1033 26.5977 9.32445 25.7956C8.54557 24.9935 8.10253 23.9242 8.08593 22.8063C8.06934 21.6884 8.48045 20.6064 9.23519 19.7815C9.98993 18.9567 11.0313 18.4513 12.1463 18.3688C12.7205 18.3645 13.2899 18.4739 13.8216 18.6907C14.3534 18.9075 14.837 19.2273 15.2446 19.6319C15.6521 20.0364 15.9756 20.5176 16.1963 21.0478C16.417 21.5779 16.5307 22.1465 16.5307 22.7207Z" fill="#F8FFF8"/>
<path d="M2.92308 27.3002C2.80993 27.3156 2.69522 27.3156 2.58207 27.3002C2.40614 27.3153 2.22923 27.2861 2.06752 27.2152C1.90581 27.1443 1.76448 27.0339 1.65647 26.8942L1.3317 26.3259C0.485991 24.8416 0.0412598 23.1626 0.0412598 21.4543C0.0412598 19.746 0.485991 18.0671 1.3317 16.5827C2.1465 15.1117 3.33903 13.8847 4.78627 13.0284C6.23351 12.172 7.88303 11.7173 9.56464 11.7112H10.4415C10.5823 11.7133 10.7212 11.7431 10.8504 11.7989C10.9797 11.8548 11.0966 11.9355 11.1946 12.0365C11.2926 12.1376 11.3698 12.2569 11.4217 12.3878C11.4736 12.5186 11.4992 12.6584 11.497 12.7992C11.4936 13.0325 11.4163 13.2588 11.2763 13.4455C11.1363 13.6323 10.9407 13.7698 10.7176 13.8384C5.84601 15.3324 2.90684 20.4475 3.68629 26.2772C3.68305 26.5063 3.60751 26.7286 3.47046 26.9123C3.33341 27.0961 3.14184 27.2318 2.92308 27.3002Z" fill="#F8FFF8"/>
<path d="M21.2402 29.3138C21.2436 29.513 21.1931 29.7094 21.094 29.8822L20.5581 30.824L20.3795 31.1325L20.0223 31.7009L19.9248 31.8308V31.9445C19.7787 32.1393 19.6488 32.3017 19.5026 32.4641L19.1291 32.8701L18.8044 33.1786L18.4634 33.4709L18.0899 33.7794L17.96 33.8768L17.6027 34.1204L17.2292 34.364L16.8557 34.5751L16.6771 34.6563H16.531L16.1413 34.8349L15.9139 34.9323L15.4917 35.0947L15.102 35.2084L13.7704 35.6306H13.5106H13.2183H12.8286H11.3346H10.9774H10.88L10.5227 35.5819H10.133H9.95437H9.80823H9.66208H9.46722L9.07749 35.452L8.75272 35.3383L8.54162 35.0135L8.26557 34.8836L7.89208 34.705L7.27501 34.3802L6.90153 34.1367C6.74973 34.0363 6.60337 33.9278 6.46309 33.8119C6.19634 33.6227 5.94642 33.4108 5.71612 33.1786C5.60245 33.0812 5.50501 32.9675 5.37511 32.8376C5.21762 32.68 5.07113 32.5118 4.93667 32.3342L4.7418 32.1068C4.69695 32.0298 4.64238 31.9589 4.57942 31.8957C4.37856 31.5864 4.19427 31.2666 4.02731 30.9377L3.4752 29.9634C3.37785 29.8014 3.32505 29.6166 3.32215 29.4277C3.31924 29.2388 3.36634 29.0524 3.45866 28.8875C3.55098 28.7227 3.68525 28.5852 3.84785 28.4889C4.01046 28.3927 4.19561 28.3411 4.38456 28.3395C4.63452 28.3476 4.8746 28.439 5.06657 28.5993C7.06309 30.3029 9.60322 31.236 12.2278 31.23C14.8965 31.2384 17.4769 30.2744 19.4864 28.5181C19.6798 28.3495 19.9281 28.2572 20.1846 28.2583C20.4646 28.2583 20.7331 28.3695 20.931 28.5675C21.1289 28.7654 21.2402 29.0339 21.2402 29.3138Z" fill="#F8FFF8"/>
<path d="M120.522 27.6573C120.633 27.6238 120.73 27.5555 120.798 27.4624C120.873 27.3774 120.914 27.2673 120.912 27.1539C120.915 27.0786 120.902 27.0036 120.874 26.9336C120.846 26.8637 120.804 26.8004 120.75 26.748C120.635 26.6544 120.492 26.6028 120.344 26.6018H119.581V28.3231H119.954V27.6898H120.133L120.571 28.3231H120.945L120.474 27.6898L120.522 27.6573ZM120.311 27.365H119.954V26.8941H120.311C120.345 26.8934 120.379 26.9004 120.41 26.9144C120.441 26.9285 120.468 26.9493 120.49 26.9753C120.501 26.998 120.507 27.023 120.507 27.0484C120.507 27.0737 120.501 27.0988 120.49 27.1214C120.489 27.1506 120.482 27.1791 120.467 27.2046C120.453 27.2301 120.433 27.2517 120.409 27.2676C120.388 27.31 120.354 27.3444 120.311 27.365Z" fill="#F8FFF8"/>
<path d="M121.854 26.7802C121.77 26.563 121.637 26.3684 121.464 26.2119C121.313 26.0591 121.137 25.9329 120.944 25.8384C120.723 25.747 120.486 25.7028 120.246 25.7085C120.002 25.7015 119.758 25.7457 119.532 25.8384C119.322 25.928 119.129 26.0545 118.963 26.2119C118.801 26.3769 118.669 26.5693 118.574 26.7802C118.475 26.994 118.424 27.2267 118.424 27.4622C118.424 27.6978 118.475 27.9305 118.574 28.1443C118.663 28.3536 118.796 28.5417 118.963 28.6964C119.128 28.8588 119.321 28.9907 119.532 29.0861C119.987 29.2597 120.49 29.2597 120.944 29.0861C121.155 28.9907 121.348 28.8588 121.513 28.6964C121.689 28.5494 121.823 28.3591 121.903 28.1443C122.001 27.9305 122.053 27.6978 122.053 27.4622C122.053 27.2267 122.001 26.994 121.903 26.7802H121.854ZM121.513 27.9981C121.44 28.1635 121.335 28.3125 121.204 28.4366C121.073 28.5666 120.919 28.6712 120.75 28.7451C120.574 28.8149 120.387 28.8533 120.198 28.8588C120.008 28.8555 119.821 28.8169 119.645 28.7451C119.473 28.6673 119.315 28.5632 119.175 28.4366C119.048 28.3085 118.944 28.1604 118.866 27.9981C118.794 27.8285 118.755 27.6465 118.752 27.4622C118.758 27.273 118.796 27.0861 118.866 26.9101C118.944 26.7479 119.048 26.5997 119.175 26.4717C119.311 26.3445 119.471 26.2452 119.645 26.1794C119.818 26.1 120.007 26.0611 120.198 26.0657C120.388 26.0628 120.576 26.1016 120.75 26.1794C120.921 26.2415 121.077 26.3414 121.204 26.4717C121.335 26.5957 121.44 26.7448 121.513 26.9101C121.591 27.0836 121.629 27.2721 121.626 27.4622C121.632 27.6474 121.593 27.831 121.513 27.9981Z" fill="#F8FFF8"/>
<path d="M36.1631 26.3583C35.6789 26.6659 35.1125 26.8188 34.5393 26.7967C34.1472 26.7992 33.7592 26.716 33.4026 26.5531C33.0476 26.4117 32.7307 26.1893 32.477 25.9036C32.1929 25.6167 31.9717 25.2739 31.8274 24.8968C31.6842 24.4624 31.6183 24.0062 31.6326 23.549C31.6286 23.0952 31.7055 22.6442 31.8599 22.2174C32.0043 21.8356 32.2253 21.4875 32.5094 21.1944C32.7679 20.9141 33.0836 20.6926 33.435 20.5449C33.8657 20.3684 34.331 20.2928 34.7954 20.3238C35.2598 20.3547 35.7109 20.4914 36.1144 20.7235C36.5509 21.0205 36.8988 21.4301 37.1212 21.9089L39.898 20.756C39.4829 19.8029 38.8004 18.9907 37.9331 18.4176C36.9646 17.7993 35.8342 17.4828 34.6854 17.5083C33.8573 17.5042 33.036 17.6585 32.2659 17.9629C31.557 18.2517 30.9116 18.6765 30.366 19.2133C29.8306 19.7663 29.4062 20.4167 29.1156 21.1295C28.8167 21.9007 28.6679 22.7219 28.6772 23.549C28.6679 24.3761 28.8167 25.1973 29.1156 25.9685C29.4157 26.6762 29.8391 27.325 30.366 27.8847C30.9071 28.427 31.5537 28.8526 32.2659 29.1351C33.0336 29.4476 33.8565 29.6022 34.6854 29.5897C35.8347 29.6192 36.9662 29.3023 37.9331 28.6804C38.8136 28.0836 39.5286 27.2735 40.0116 26.3258L37.2348 25.1241C37.0015 25.6286 36.6299 26.0565 36.1631 26.3583Z" fill="#F8FFF8"/>
<path d="M46.247 17.5082C45.3136 17.479 44.3865 17.6695 43.5403 18.0644C42.6941 18.4593 41.9525 19.0475 41.3754 19.7816L43.5676 21.2918C43.8748 20.8713 44.2785 20.5309 44.7448 20.2991C45.2111 20.0674 45.7263 19.9512 46.247 19.9603C46.8959 19.9346 47.5317 20.1485 48.0332 20.5611C48.2592 20.7384 48.4412 20.9654 48.5651 21.2245C48.689 21.4836 48.7515 21.7678 48.7477 22.055V22.396C48.353 22.2375 47.9456 22.1125 47.5298 22.0226C46.9326 21.8926 46.3222 21.8327 45.7111 21.8439C45.0888 21.8396 44.4696 21.9327 43.8761 22.12C43.3369 22.2714 42.8341 22.5311 42.3984 22.8832C41.9959 23.2203 41.6646 23.6343 41.4241 24.1011C41.1869 24.6089 41.0702 25.1646 41.0831 25.7249C41.0738 26.2832 41.1846 26.837 41.4079 27.3488C41.6188 27.8118 41.9228 28.2264 42.301 28.5667C42.7036 28.9126 43.1658 29.1822 43.665 29.3624C44.1847 29.5553 44.7346 29.6542 45.2889 29.6547C45.9626 29.6835 46.6312 29.5262 47.2213 29.2C47.7096 28.9023 48.1435 28.5234 48.5041 28.0795H48.6827V29.2812H51.6706V22.4123C51.7205 21.7434 51.6243 21.0716 51.3887 20.4435C51.1532 19.8154 50.784 19.2461 50.3066 18.7749C49.1619 17.8551 47.7116 17.4026 46.247 17.5082ZM48.4716 25.6275C48.3481 25.9442 48.1601 26.2318 47.9195 26.4719C47.6625 26.7109 47.3657 26.9032 47.0427 27.0403C46.6943 27.1916 46.3183 27.2691 45.9384 27.2676C45.471 27.29 45.009 27.1589 44.6231 26.8941C44.4426 26.7732 44.2958 26.6085 44.1964 26.4154C44.097 26.2222 44.0483 26.007 44.0548 25.7899C44.0522 25.5626 44.1039 25.3379 44.2055 25.1345C44.3072 24.9312 44.4559 24.7551 44.6394 24.6207C45.1119 24.2848 45.6843 24.1188 46.2632 24.1498C46.6791 24.1456 47.0939 24.1947 47.4973 24.296C47.8793 24.3898 48.2497 24.526 48.6016 24.7019C48.6289 25.0021 48.6014 25.3047 48.5204 25.595L48.4716 25.6275Z" fill="#F8FFF8"/>
<path d="M60.3748 17.5083C60.0439 17.5146 59.7156 17.5693 59.4005 17.6706C59.0754 17.7717 58.7644 17.9135 58.4749 18.0928C58.1885 18.256 57.9262 18.4582 57.6955 18.6937C57.4693 18.9148 57.2826 19.1729 57.1434 19.4569H56.9485V17.833H54.1068V29.2H57.1434V23.6464C57.1397 23.2112 57.2055 22.7781 57.3383 22.3636C57.4575 21.9864 57.6446 21.6342 57.8904 21.3243C58.1298 21.0269 58.4345 20.7887 58.7809 20.6282C59.1273 20.4677 59.506 20.3892 59.8877 20.3987C60.163 20.3698 60.4405 20.3698 60.7158 20.3987C60.9305 20.4475 61.1379 20.524 61.3329 20.6261L62.1448 17.9142C61.9175 17.7686 61.6717 17.6539 61.4141 17.5732C61.0722 17.5048 60.7226 17.4829 60.3748 17.5083Z" fill="#F8FFF8"/>
<path d="M72.5049 19.2132C71.9635 18.6712 71.3169 18.2457 70.605 17.9628C69.0395 17.3474 67.299 17.3474 65.7335 17.9628C65.0246 18.2515 64.3791 18.6763 63.8335 19.2132C63.2929 19.7619 62.8678 20.4135 62.5832 21.1293C62.2788 21.8995 62.1244 22.7207 62.1285 23.5488C62.1255 24.3821 62.2798 25.2085 62.5832 25.9846C62.8681 26.6955 63.2933 27.3417 63.8335 27.8845C64.3747 28.4268 65.0213 28.8524 65.7335 29.1349C67.299 29.7503 69.0395 29.7503 70.605 29.1349C71.3142 28.8559 71.9562 28.4298 72.4887 27.8845C73.0343 27.3461 73.4604 26.6987 73.739 25.9846C74.0499 25.2107 74.2045 24.3828 74.1937 23.5488C74.2062 22.72 74.0516 21.8971 73.739 21.1293C73.4654 20.4117 73.0451 19.7591 72.5049 19.2132ZM70.8811 24.9129C70.7311 25.2956 70.5045 25.6438 70.2153 25.9359C69.9412 26.2086 69.6155 26.4239 69.2572 26.5692C68.9017 26.716 68.5213 26.7932 68.1368 26.7965C67.7466 26.7965 67.3602 26.7193 67.0001 26.5692C66.6465 26.424 66.3261 26.2085 66.0582 25.9359C65.7636 25.6482 65.5362 25.2988 65.3924 24.9129C65.2218 24.4788 65.139 24.0152 65.1489 23.5488C65.1419 23.0828 65.2246 22.6197 65.3924 22.1848C65.5403 21.801 65.7672 21.4524 66.0582 21.1618C66.3261 20.8891 66.6465 20.6737 67.0001 20.5285C67.3614 20.384 67.7477 20.3122 68.1368 20.3174C68.5203 20.3152 68.9007 20.3868 69.2572 20.5285C69.6155 20.6738 69.9412 20.8891 70.2153 21.1618C70.4999 21.4576 70.7258 21.8048 70.8811 22.1848C71.0489 22.6197 71.1316 23.0828 71.1246 23.5488C71.1553 24.0108 71.0946 24.4744 70.946 24.9129H70.8811Z" fill="#F8FFF8"/>
<path d="M83.6932 23.4352C83.6993 23.879 83.6446 24.3215 83.5308 24.7505C83.4277 25.1327 83.2512 25.4912 83.0112 25.806C82.8015 26.1056 82.5231 26.3506 82.1993 26.5205C81.8673 26.7068 81.492 26.802 81.1113 26.7966C80.813 26.8235 80.5124 26.7835 80.2315 26.6796C79.9506 26.5757 79.6964 26.4103 79.4875 26.1957C79.0876 25.6779 78.8963 25.0289 78.9516 24.377V17.8816H75.9475V24.7505C75.8835 26.0115 76.2563 27.256 77.003 28.2743C77.4016 28.7349 77.9038 29.0943 78.4684 29.323C79.033 29.5516 79.6439 29.643 80.2507 29.5896C80.9704 29.6061 81.6818 29.4325 82.3129 29.0862C82.8992 28.7699 83.392 28.3051 83.7419 27.7384H83.9368V29.2161H86.7785V17.8491H83.6932V23.4352Z" fill="#F8FFF8"/>
<path d="M95.1091 22.38L93.3391 22.0228C92.9545 21.9298 92.5834 21.7879 92.2349 21.6006C92.1163 21.546 92.0154 21.4592 91.9436 21.3501C91.8719 21.241 91.8321 21.114 91.8289 20.9835C91.8367 20.8352 91.8867 20.6923 91.973 20.5714C92.0593 20.4506 92.1784 20.357 92.3161 20.3015C92.665 20.1133 93.0565 20.0182 93.4528 20.0254C93.8872 20.0351 94.3141 20.1405 94.7032 20.334C95.1262 20.5319 95.4615 20.8788 95.645 21.3083L98.2594 20.2365C97.9227 19.3385 97.2704 18.5938 96.4245 18.1418C95.5225 17.7111 94.5334 17.4944 93.534 17.5085C92.9193 17.5032 92.3069 17.5852 91.7153 17.752C91.1888 17.8916 90.6931 18.1285 90.2538 18.4503C89.8458 18.7404 89.5075 19.1176 89.2632 19.5545C89.0159 20.007 88.8926 20.5168 88.906 21.0322C88.8966 21.4825 88.9969 21.9284 89.1983 22.3313C89.3977 22.6861 89.6557 23.0045 89.9615 23.2731C90.2751 23.5381 90.6251 23.7569 91.0008 23.9227C91.3566 24.0809 91.7262 24.2059 92.105 24.2962L93.7289 24.6372C94.2209 24.7285 94.6933 24.9043 95.1254 25.1568C95.2498 25.2378 95.3521 25.3485 95.4229 25.4789C95.4938 25.6093 95.5311 25.7554 95.5313 25.9038C95.5232 26.0581 95.4737 26.2074 95.388 26.336C95.3023 26.4645 95.1835 26.5677 95.0442 26.6345C94.6399 26.8481 94.1856 26.9491 93.7289 26.9268C93.2061 26.9297 92.6934 26.7832 92.2511 26.5046C91.7855 26.2015 91.4142 25.774 91.1794 25.2705L88.4675 26.3585C88.633 26.7828 88.8571 27.1818 89.1333 27.5439C89.4324 27.9456 89.7943 28.2966 90.2051 28.5831C90.6658 28.9064 91.1758 29.1532 91.7153 29.3139C92.3581 29.5044 93.0259 29.5975 93.6964 29.5899C94.3679 29.5955 95.0362 29.4969 95.6775 29.2976C96.2285 29.1078 96.7443 28.8279 97.2039 28.4695C97.6072 28.146 97.939 27.7424 98.1782 27.2841C98.4897 26.7035 98.6102 26.0396 98.5228 25.3866C98.4353 24.7336 98.1443 24.1248 97.6911 23.6466C96.9698 22.9854 96.0735 22.5457 95.1091 22.38Z" fill="#F8FFF8"/>
<path d="M109.951 19.2133C109.46 18.6721 108.856 18.2453 108.181 17.9629C107.407 17.6537 106.579 17.4992 105.746 17.5082C104.929 17.4985 104.121 17.6646 103.375 17.9954C102.657 18.3064 102.007 18.753 101.459 19.3107C100.931 19.8637 100.517 20.5147 100.241 21.2268C99.6431 22.7509 99.6431 24.4444 100.241 25.9685C100.527 26.6833 100.952 27.3345 101.491 27.8846C102.038 28.427 102.69 28.8524 103.407 29.135C104.164 29.4458 104.976 29.6005 105.794 29.5897C106.938 29.6258 108.067 29.3267 109.042 28.729C109.935 28.1712 110.677 27.4015 111.202 26.4881L108.701 25.2702C108.443 25.7495 108.076 26.1612 107.629 26.4719C107.117 26.8005 106.516 26.9648 105.908 26.9428C105.556 26.9432 105.206 26.894 104.869 26.7967C104.532 26.6836 104.214 26.5193 103.927 26.3095C103.639 26.0742 103.397 25.7879 103.212 25.4651C103.004 25.1015 102.876 24.6971 102.839 24.2797H111.364C111.355 24.1933 111.355 24.1062 111.364 24.0199C111.357 23.9389 111.357 23.8573 111.364 23.7763V23.4515C111.376 22.651 111.25 21.8544 110.991 21.0969C110.776 20.4047 110.423 19.7637 109.951 19.2133ZM103.082 22.0225C103.233 21.3783 103.6 20.8051 104.122 20.3987C104.589 20.0438 105.159 19.8501 105.746 19.8466C106.151 19.8324 106.555 19.9044 106.931 20.0577C107.244 20.1743 107.53 20.3508 107.775 20.5773C107.983 20.7783 108.154 21.0148 108.279 21.2756C108.382 21.4845 108.448 21.7098 108.474 21.9413L103.082 22.0225Z" fill="#F8FFF8"/>
<path d="M116.381 12.6528H113.345V29.2161H116.381V12.6528Z" fill="#F8FFF8"/>
</g>
<defs>
<clipPath id="clip0_47_71">
<rect width="122" height="24.2279" fill="white" transform="translate(0 11.5325)"/>
</clipPath>
</defs>
</svg>
